<svg version="1.1" id="Layer_1" xmlns="http://www.w3.org/2000/svg" xmlns:xlink="http://www.w3.org/1999/xlink" x="0px" y="0px"
	 width="100%" viewBox="0 0 738 738" enable-background="new 0 0 738 738" xml:space="preserve">
<path fill="#FEFEFE" opacity="1.000000" stroke="none" 
	d="
M739.000000,268.000000 
	C739.000000,425.333344 739.000000,582.166687 739.000000,739.000000 
	C493.000000,739.000000 247.000000,739.000000 1.000000,739.000000 
	C1.000000,493.000000 1.000000,247.000000 1.000000,1.000000 
	C247.000000,1.000000 493.000000,1.000000 739.000000,1.000000 
	C739.000000,89.833336 739.000000,178.666672 739.000000,268.000000 
M554.967041,262.022522 
	C554.967041,262.022522 554.992249,262.051025 555.039978,261.351196 
	C548.606323,255.156570 542.540833,248.510590 535.643738,242.884018 
	C527.427917,236.181641 518.429138,230.447739 509.893677,224.126694 
	C493.984039,212.344650 476.171417,204.139709 457.843964,197.192490 
	C425.320282,184.864014 391.370300,180.690872 356.772675,181.779999 
	C333.204071,182.521896 310.103088,186.572037 287.843170,194.476852 
	C277.841187,198.028717 268.200836,202.595093 258.379852,206.661224 
	C241.072144,213.827042 225.567352,224.064926 210.969925,235.559402 
	C201.860031,242.732819 193.820068,251.251022 185.128143,258.972290 
	C170.442184,272.018219 159.208679,287.886505 148.978622,304.360138 
	C141.549927,316.322662 134.855835,328.909454 129.352814,341.863037 
	C119.423546,365.235626 113.412071,389.684814 110.517029,415.075470 
	C105.436386,459.634399 110.445992,502.704224 126.948921,544.367493 
	C130.487991,553.302246 134.460693,562.162354 139.218719,570.494385 
	C146.441864,583.143372 153.651810,595.967590 162.453201,607.507874 
	C175.260849,624.301086 190.024445,639.497620 206.083969,653.323914 
	C207.268982,654.344116 208.782288,654.982971 210.345154,656.466980 
	C211.295273,657.801208 211.966980,659.548462 213.238693,660.405579 
	C225.718857,668.817810 237.829071,677.930481 250.955750,685.198059 
	C273.145691,697.483276 296.760712,706.397827 321.846130,711.137085 
	C377.434143,721.638916 431.149231,716.283020 482.658447,692.330322 
	C505.645142,681.641052 526.572510,667.662537 545.391846,650.729248 
	C560.214722,637.391907 573.573364,622.534851 585.077637,606.269897 
	C600.003235,585.167969 611.761658,562.213867 619.809448,537.641113 
	C634.118103,493.951752 636.728271,449.349335 629.021362,404.017151 
	C622.613159,366.324524 607.969666,332.008820 586.354919,300.797485 
	C577.257385,287.660858 565.940796,276.060974 555.839661,263.221985 
	C555.543457,262.810638 555.247253,262.399292 554.967041,262.022522 
M553.675049,110.801819 
	C551.037109,107.307449 548.399170,103.813072 545.773071,100.334373 
	C546.553284,99.753845 546.788269,99.478897 547.083740,99.373642 
	C559.847656,94.826485 565.472534,86.639191 564.943970,73.350777 
	C564.421082,60.205364 557.289917,49.792847 544.468323,48.074532 
	C529.446716,46.061371 514.091858,46.534115 498.733368,45.922653 
	C498.733368,77.013817 498.733368,106.896431 498.733368,136.706558 
	C506.647003,136.706558 514.227051,136.706558 522.191223,136.706558 
	C522.191223,125.529503 522.191223,114.661827 522.191223,102.598259 
	C529.416077,113.774170 535.936218,123.945915 542.584900,134.032852 
	C543.394104,135.260529 544.872925,136.851440 546.079224,136.884262 
	C554.974304,137.126205 563.879089,137.015106 573.742065,137.015106 
	C566.774109,127.925743 560.431824,119.652473 553.675049,110.801819 
M290.566467,139.517136 
	C296.792511,138.602585 303.305115,138.552673 309.188110,136.602982 
	C323.818665,131.754227 329.332703,119.802155 329.831482,105.603851 
	C330.497589,86.643173 330.158875,67.647064 330.227509,48.666088 
	C330.229736,48.055241 329.966949,47.443436 329.804901,46.732101 
	C322.188171,46.732101 314.756561,46.732101 306.936584,46.732101 
	C306.936584,62.263672 307.008850,77.553261 306.894165,92.841446 
	C306.858063,97.652008 306.665802,102.512589 305.927643,107.254158 
	C304.930206,113.660957 301.003387,117.284737 294.823792,118.432724 
	C282.779419,120.670204 275.551880,114.744278 275.235809,101.669060 
	C274.877747,86.857147 275.065063,72.032021 275.020020,57.212624 
	C275.009552,53.768463 275.018463,50.324249 275.018463,46.827660 
	C266.935913,46.827660 259.371490,46.827660 252.081421,46.827660 
	C252.081421,67.778717 251.565262,88.405235 252.312759,108.985870 
	C252.654465,118.394272 256.666168,127.041580 265.035034,132.805023 
	C272.490692,137.939560 280.972382,139.092575 290.566467,139.517136 
M364.442322,137.020416 
	C366.877563,137.020416 369.312775,137.020416 372.178101,137.020416 
	C372.178101,126.723602 372.178101,116.987297 372.178101,106.979698 
	C377.425446,106.979698 382.350891,107.642624 387.013702,106.818817 
	C393.439056,105.683609 400.493958,104.736954 405.809570,101.381432 
	C417.723877,93.860451 418.569641,81.383095 416.515259,68.911507 
	C414.596436,57.263023 407.401764,49.061935 395.570129,47.864494 
	C380.114319,46.300270 364.477295,46.526516 348.703979,45.974953 
	C348.703979,76.980049 348.703979,106.868134 348.703979,137.020416 
	C353.821259,137.020416 358.641174,137.020416 364.442322,137.020416 
M233.662842,121.925377 
	C240.383179,101.593201 234.120621,88.811165 213.998032,81.826027 
	C211.802551,81.063911 209.543442,80.477959 207.370743,79.659317 
	C205.358658,78.901199 203.287033,78.157852 201.479385,77.027740 
	C196.419342,73.864258 196.609604,67.797241 201.953644,65.136436 
	C206.916626,62.665371 211.977798,63.498569 216.818558,65.812599 
	C218.993607,66.852348 221.066895,68.104988 223.350677,69.350662 
	C226.463730,63.229992 229.386826,57.482811 232.294724,51.765480 
	C223.479034,45.913460 208.369766,42.734921 198.154999,44.476677 
	C183.376297,46.996643 174.550430,56.507698 173.217102,71.350632 
	C172.013306,84.751442 178.076385,92.933632 193.119308,98.372009 
	C197.639404,100.006134 202.145050,101.708664 206.547089,103.632072 
	C210.139008,105.201508 211.754929,108.126099 211.147369,112.108971 
	C210.536041,116.116493 207.832245,118.158546 204.188324,118.929634 
	C202.117737,119.367775 199.700668,119.756676 197.798264,119.111015 
	C191.482162,116.967438 185.328629,114.344856 178.724182,111.753510 
	C176.001022,116.889183 172.761322,122.999016 169.478790,129.189636 
	C179.401688,136.250687 190.055786,139.634857 201.637802,139.419296 
	C214.890091,139.172638 226.653259,135.575119 233.662842,121.925377 
M472.473358,70.991760 
	C474.805603,70.991714 477.148285,70.850388 479.467926,71.021393 
	C484.122925,71.364571 486.240723,69.495041 486.044922,64.665909 
	C485.815613,59.011101 485.904907,53.338142 486.019714,47.676380 
	C486.101196,43.656372 484.323975,41.958336 480.313141,41.977402 
	C464.154175,42.054203 447.994385,42.055237 431.835419,41.975410 
	C427.919098,41.956062 425.975128,43.419590 425.982391,47.527279 
	C426.034027,76.847221 426.027985,106.167336 425.987457,135.487320 
	C425.982300,139.213943 427.540863,141.017944 431.350159,141.007935 
	C447.842560,140.964630 464.335175,140.976639 480.827667,140.998779 
	C484.353851,141.003510 486.022034,139.327744 485.999054,135.809311 
	C485.962067,130.145462 485.878845,124.478256 486.027222,118.818024 
	C486.140991,114.479179 484.133698,112.862091 479.953827,112.969254 
	C473.960510,113.122902 467.959076,112.936523 461.963593,113.040337 
	C459.405945,113.084618 457.917572,112.594109 457.920746,109.526489 
	C457.923859,106.516541 459.296692,105.902504 461.910614,105.956757 
	C467.572235,106.074265 473.242950,105.846466 478.900574,106.037270 
	C483.470642,106.191391 485.190491,104.171120 485.036835,99.734283 
	C484.846680,94.243370 484.846313,88.735817 485.036804,83.244919 
	C485.191284,78.791801 483.434052,76.813187 478.879791,76.961899 
	C473.055389,77.152092 467.211304,77.169716 461.396545,76.864296 
	C460.222595,76.802628 459.141846,74.966499 458.018158,73.948456 
	C459.176239,72.964417 460.249054,71.286171 461.508972,71.131439 
	C464.791473,70.728340 468.156006,70.993263 472.473358,70.991760 
z"/>
<path fill="#595958" opacity="1.000000" stroke="none" 
	d="
M555.632935,263.762512 
	C565.940796,276.060974 577.257385,287.660858 586.354919,300.797485 
	C607.969666,332.008820 622.613159,366.324524 629.021362,404.017151 
	C636.728271,449.349335 634.118103,493.951752 619.809448,537.641113 
	C611.761658,562.213867 600.003235,585.167969 585.077637,606.269897 
	C573.573364,622.534851 560.214722,637.391907 545.391846,650.729248 
	C526.572510,667.662537 505.645142,681.641052 482.658447,692.330322 
	C431.149231,716.283020 377.434143,721.638916 321.846130,711.137085 
	C296.760712,706.397827 273.145691,697.483276 250.955750,685.198059 
	C237.829071,677.930481 225.718857,668.817810 213.238693,660.405579 
	C211.966980,659.548462 211.295273,657.801208 210.201019,655.790100 
	C208.577179,652.716736 206.753647,650.465027 205.673660,647.900269 
	C198.771179,631.508301 192.567978,614.869812 189.305695,597.299438 
	C183.231567,564.584717 180.213242,531.766968 185.032059,498.539124 
	C188.195923,476.722809 193.587952,455.502960 200.693008,434.690796 
	C208.154388,412.834900 219.644455,393.007996 232.170029,373.776764 
	C242.599823,357.763275 254.081726,342.393250 268.360443,329.668304 
	C286.303192,313.678040 304.063293,297.442871 325.461975,285.682892 
	C346.688690,274.017456 368.498352,263.756012 391.908966,257.910858 
	C409.408173,253.541687 427.477203,251.145096 445.424835,248.953873 
	C472.609863,245.634842 499.578186,248.088760 526.164673,254.537308 
	C535.813721,256.877686 545.385315,259.537140 554.992249,262.051025 
	C554.992249,262.051025 554.967041,262.022522 554.832764,262.253632 
	C555.009949,262.910675 555.321472,263.336609 555.632935,263.762512 
M416.161224,391.539795 
	C399.936218,419.884949 377.487549,443.112152 354.014923,465.319977 
	C357.533325,469.000946 357.711945,469.248871 360.299957,467.384460 
	C373.830780,457.636871 388.203888,448.784973 400.457428,437.617310 
	C412.006012,427.092133 421.380890,414.157532 431.509705,402.112732 
	C434.813263,398.184296 437.480804,393.720947 440.439209,389.502228 
	C440.880188,389.570312 441.321198,389.638397 441.762177,389.706482 
	C440.944183,407.173462 439.957214,424.634827 439.372223,442.109619 
	C439.026764,452.429199 439.172974,462.774719 439.505249,473.095490 
	C439.546875,474.388977 441.969482,476.489532 443.482208,476.679901 
	C447.416351,477.174988 451.458130,476.797974 455.456940,476.799927 
	C462.481384,476.803406 464.843231,474.624329 464.719818,467.813293 
	C464.218964,440.173431 463.630646,412.535156 463.144043,384.895081 
	C463.107605,382.825989 463.617432,380.747253 463.873352,378.673004 
	C464.348175,378.639954 464.822998,378.606873 465.297821,378.573822 
	C481.863037,412.388550 504.404419,441.043579 536.644348,461.884125 
	C537.313477,460.672699 538.138000,459.627899 538.506836,458.441437 
	C541.548645,448.656494 547.264954,441.536957 557.491943,438.571381 
	C559.155579,438.089020 560.554504,436.693970 562.075806,435.720764 
	C560.637329,434.135773 559.489563,431.845245 557.701538,431.108368 
	C553.614502,429.423981 549.126465,428.741608 544.955566,427.227173 
	C517.285828,417.180298 493.077179,402.072144 474.830627,378.485321 
	C473.093445,376.239716 472.183929,373.353851 470.890167,370.765259 
	C473.700409,370.143066 476.506927,369.001587 479.321442,368.981537 
	C500.310425,368.831726 521.301086,368.939789 542.290833,368.863495 
	C545.074951,368.853394 547.891113,368.433044 550.631226,367.892609 
	C554.053162,367.217651 553.831848,364.951080 552.267456,362.699524 
	C551.441040,361.510132 550.125305,360.631500 548.947266,359.720215 
	C538.980164,352.010132 528.910095,344.429626 519.071838,336.559082 
	C516.586853,334.571136 514.619751,334.418243 512.565247,336.488983 
	C510.708069,338.360809 509.086151,340.484955 507.498413,342.601349 
	C504.329803,346.825043 501.337921,351.184174 498.078064,355.334259 
	C497.367493,356.238892 495.863739,356.920441 494.682220,356.991669 
	C485.554260,357.541962 476.413605,357.877960 467.281677,358.368958 
	C464.395386,358.524170 462.895996,357.634827 463.066681,354.456909 
	C463.245178,351.133636 462.790558,347.755707 463.177734,344.468231 
	C464.257538,335.299713 462.483490,324.530273 475.596375,321.699310 
	C477.155212,321.362762 478.238556,318.823517 479.542297,317.305298 
	C478.101074,316.101349 476.702911,314.839417 475.198090,313.721008 
	C474.565338,313.250702 473.732117,312.937317 472.947174,312.803131 
	C468.448944,312.034088 463.960846,311.069550 459.425720,310.683716 
	C452.428375,310.088379 445.395813,309.906738 438.166992,309.538910 
	C438.166992,325.996582 438.166992,341.363770 438.166992,357.066193 
	C426.892609,357.066193 416.611450,356.867676 406.344208,357.159058 
	C401.929382,357.284332 398.908997,355.701752 395.861725,352.675812 
	C390.459198,347.311157 384.622467,342.379822 378.902863,337.340424 
	C376.522064,335.242767 374.635223,336.381775 373.107788,338.605652 
	C369.537933,343.803375 366.017212,349.035339 362.393250,354.194885 
	C361.666901,355.229004 360.587891,356.758453 359.642365,356.779877 
	C350.875092,356.978912 342.101410,356.897522 333.061432,356.897522 
	C333.061432,348.492920 333.377747,340.823822 332.945221,333.197205 
	C332.676941,328.467010 333.613251,325.365417 338.520386,323.874146 
	C340.299469,323.333435 341.773865,321.633728 343.258820,320.317902 
	C345.547668,318.289734 345.535187,315.984100 342.711823,314.800537 
	C339.009674,313.248596 335.099182,311.983063 331.156158,311.265656 
	C325.192261,310.180542 319.019501,310.128235 313.129944,308.784698 
	C308.058960,307.627838 306.326385,308.335663 306.310638,313.609802 
	C306.273346,326.091644 306.099274,338.578644 306.408691,351.052948 
	C306.518402,355.475861 305.019836,356.973938 300.806091,356.948334 
	C288.708466,356.874847 276.609222,357.060333 264.511810,356.974091 
	C262.486725,356.959686 260.381622,356.319397 258.463318,355.579681 
	C254.072571,353.886536 251.181244,355.921844 251.858490,360.615112 
	C252.298141,363.661865 253.156250,366.648163 253.740036,369.271423 
	C268.794037,369.271423 283.811310,369.271423 299.210022,369.271423 
	C298.858032,370.540588 298.796021,371.209137 298.503296,371.753723 
	C293.015594,381.964050 287.075043,391.956848 282.092896,402.406860 
	C274.966156,417.355164 265.706665,430.781738 255.080475,443.358673 
	C250.899536,448.307098 246.451187,453.046967 242.556168,458.207489 
	C241.563202,459.523071 242.217392,462.081848 242.114777,464.069427 
	C243.630997,463.627045 245.478882,463.594055 246.610641,462.677124 
	C255.173294,455.740112 263.817535,448.876648 272.006348,441.512146 
	C282.676178,431.916351 291.954773,421.043152 299.580658,408.828613 
	C302.579865,404.024780 305.564514,399.211853 309.293518,393.217102 
	C309.293518,409.371826 309.299347,424.019562 309.289124,438.667297 
	C309.286804,441.998352 309.331146,445.334106 309.176086,448.659393 
	C308.822784,456.235840 308.069702,463.807495 308.077484,471.380432 
	C308.080780,474.579529 309.780365,477.309570 314.098602,476.889984 
	C317.731049,476.537018 321.430328,476.940216 325.087189,476.755035 
	C330.539764,476.478973 333.046936,473.769653 333.051849,468.377930 
	C333.064056,454.881500 333.039154,441.385071 333.034393,427.888641 
	C333.030334,416.314117 333.033569,404.739594 333.033569,392.823212 
	C351.325867,399.859009 362.676117,414.539795 375.489258,426.917969 
	C382.469757,422.745270 384.631836,417.895386 384.844391,408.603912 
	C384.955536,403.743256 382.743958,400.093811 379.284821,397.506134 
	C371.823975,391.925018 362.974579,389.546631 353.934479,387.879791 
	C347.168335,386.632202 340.402740,385.381531 333.445099,384.096802 
	C333.445099,379.347015 333.445099,374.302490 333.445099,369.179565 
	C364.738678,369.179565 395.646271,369.179565 427.140564,369.179565 
	C423.464691,376.717743 420.006714,383.809174 416.161224,391.539795 
M414.292877,491.778046 
	C398.332306,491.781677 382.371094,491.878754 366.411377,491.762726 
	C350.419586,491.646454 334.421692,491.542053 318.441284,490.997406 
	C308.911438,490.672607 299.331329,490.592987 291.081482,483.949951 
	C287.474548,481.045563 282.262970,480.133942 276.913513,477.966248 
	C276.913513,484.650391 276.825165,490.888641 276.929871,497.123657 
	C277.262543,516.930908 278.205536,536.744812 277.914185,556.541443 
	C277.507599,584.164001 276.155792,611.771973 275.308411,639.389282 
	C275.101654,646.127869 278.956299,649.088440 285.715820,648.020020 
	C289.454987,647.428894 293.240448,646.956299 297.018677,646.826599 
	C302.959015,646.622498 306.011780,643.697815 306.190796,637.601624 
	C306.317352,633.291260 306.670593,628.979553 306.599457,624.673828 
	C306.531372,620.554382 308.372986,619.105286 312.353485,619.099731 
	C366.344177,619.024292 420.334930,618.909790 474.324982,618.655823 
	C478.456696,618.636353 479.496033,620.154907 479.309570,623.939758 
	C479.055756,629.093018 479.233978,634.268433 479.254456,639.434204 
	C479.276001,644.862671 480.926147,646.953003 486.281311,646.670837 
	C492.498749,646.343201 498.692169,645.329895 504.859406,644.377136 
	C507.897980,643.907715 509.240570,641.958191 509.015625,638.665222 
	C508.429047,630.079895 507.860901,621.481689 507.709656,612.881165 
	C507.493042,600.565613 507.846558,588.239685 507.609467,575.924927 
	C507.218597,555.624390 506.586945,535.328064 505.957855,515.033081 
	C505.865295,512.047241 506.643738,510.109619 509.486176,508.642120 
	C512.241516,507.219574 514.839111,505.266693 517.063660,503.093872 
	C520.358093,499.876038 520.387512,496.327698 516.998169,493.229797 
	C513.985779,490.476440 510.430328,488.316345 507.108459,485.902771 
	C501.302795,481.684540 495.492462,477.472748 489.771545,473.321747 
	C485.159454,478.889862 481.220886,483.778107 477.096283,488.503967 
	C476.336365,489.374664 474.846436,489.968903 473.653320,490.042877 
	C465.182220,490.567932 456.704590,491.071594 448.221466,491.297821 
	C437.232391,491.590942 426.236298,491.620087 414.292877,491.778046 
z"/>
<path fill="#FEB201" opacity="1.000000" stroke="none" 
	d="
M555.016113,261.701111 
	C545.385315,259.537140 535.813721,256.877686 526.164673,254.537308 
	C499.578186,248.088760 472.609863,245.634842 445.424835,248.953873 
	C427.477203,251.145096 409.408173,253.541687 391.908966,257.910858 
	C368.498352,263.756012 346.688690,274.017456 325.461975,285.682892 
	C304.063293,297.442871 286.303192,313.678040 268.360443,329.668304 
	C254.081726,342.393250 242.599823,357.763275 232.170029,373.776764 
	C219.644455,393.007996 208.154388,412.834900 200.693008,434.690796 
	C193.587952,455.502960 188.195923,476.722809 185.032059,498.539124 
	C180.213242,531.766968 183.231567,564.584717 189.305695,597.299438 
	C192.567978,614.869812 198.771179,631.508301 205.673660,647.900269 
	C206.753647,650.465027 208.577179,652.716736 210.099945,655.456177 
	C208.782288,654.982971 207.268982,654.344116 206.083969,653.323914 
	C190.024445,639.497620 175.260849,624.301086 162.453201,607.507874 
	C153.651810,595.967590 146.441864,583.143372 139.218719,570.494385 
	C134.460693,562.162354 130.487991,553.302246 126.948921,544.367493 
	C110.445992,502.704224 105.436386,459.634399 110.517029,415.075470 
	C113.412071,389.684814 119.423546,365.235626 129.352814,341.863037 
	C134.855835,328.909454 141.549927,316.322662 148.978622,304.360138 
	C159.208679,287.886505 170.442184,272.018219 185.128143,258.972290 
	C193.820068,251.251022 201.860031,242.732819 210.969925,235.559402 
	C225.567352,224.064926 241.072144,213.827042 258.379852,206.661224 
	C268.200836,202.595093 277.841187,198.028717 287.843170,194.476852 
	C310.103088,186.572037 333.204071,182.521896 356.772675,181.779999 
	C391.370300,180.690872 425.320282,184.864014 457.843964,197.192490 
	C476.171417,204.139709 493.984039,212.344650 509.893677,224.126694 
	C518.429138,230.447739 527.427917,236.181641 535.643738,242.884018 
	C542.540833,248.510590 548.606323,255.156570 555.016113,261.701111 
z"/>
<path fill="#333333" opacity="1.000000" stroke="none" 
	d="
M553.882324,111.090515 
	C560.431824,119.652473 566.774109,127.925743 573.742065,137.015106 
	C563.879089,137.015106 554.974304,137.126205 546.079224,136.884262 
	C544.872925,136.851440 543.394104,135.260529 542.584900,134.032852 
	C535.936218,123.945915 529.416077,113.774170 522.191223,102.598259 
	C522.191223,114.661827 522.191223,125.529503 522.191223,136.706558 
	C514.227051,136.706558 506.647003,136.706558 498.733368,136.706558 
	C498.733368,106.896431 498.733368,77.013817 498.733368,45.922653 
	C514.091858,46.534115 529.446716,46.061371 544.468323,48.074532 
	C557.289917,49.792847 564.421082,60.205364 564.943970,73.350777 
	C565.472534,86.639191 559.847656,94.826485 547.083740,99.373642 
	C546.788269,99.478897 546.553284,99.753845 545.773071,100.334373 
	C548.399170,103.813072 551.037109,107.307449 553.882324,111.090515 
M522.004150,77.470337 
	C522.004150,80.567795 522.004150,83.665245 522.004150,86.913536 
	C528.918640,86.986870 535.481934,87.547546 539.444519,81.146973 
	C541.699158,77.505127 541.580505,73.353241 539.078369,69.843147 
	C534.884583,63.959831 528.563110,64.701004 522.004150,64.896652 
	C522.004150,68.919685 522.004150,72.703560 522.004150,77.470337 
z"/>
<path fill="#323232" opacity="1.000000" stroke="none" 
	d="
M290.129822,139.476364 
	C280.972382,139.092575 272.490692,137.939560 265.035034,132.805023 
	C256.666168,127.041580 252.654465,118.394272 252.312759,108.985870 
	C251.565262,88.405235 252.081421,67.778717 252.081421,46.827660 
	C259.371490,46.827660 266.935913,46.827660 275.018463,46.827660 
	C275.018463,50.324249 275.009552,53.768463 275.020020,57.212624 
	C275.065063,72.032021 274.877747,86.857147 275.235809,101.669060 
	C275.551880,114.744278 282.779419,120.670204 294.823792,118.432724 
	C301.003387,117.284737 304.930206,113.660957 305.927643,107.254158 
	C306.665802,102.512589 306.858063,97.652008 306.894165,92.841446 
	C307.008850,77.553261 306.936584,62.263672 306.936584,46.732101 
	C314.756561,46.732101 322.188171,46.732101 329.804901,46.732101 
	C329.966949,47.443436 330.229736,48.055241 330.227509,48.666088 
	C330.158875,67.647064 330.497589,86.643173 329.831482,105.603851 
	C329.332703,119.802155 323.818665,131.754227 309.188110,136.602982 
	C303.305115,138.552673 296.792511,138.602585 290.129822,139.476364 
z"/>
<path fill="#333333" opacity="1.000000" stroke="none" 
	d="
M363.951691,137.020416 
	C358.641174,137.020416 353.821259,137.020416 348.703979,137.020416 
	C348.703979,106.868134 348.703979,76.980049 348.703979,45.974953 
	C364.477295,46.526516 380.114319,46.300270 395.570129,47.864494 
	C407.401764,49.061935 414.596436,57.263023 416.515259,68.911507 
	C418.569641,81.383095 417.723877,93.860451 405.809570,101.381432 
	C400.493958,104.736954 393.439056,105.683609 387.013702,106.818817 
	C382.350891,107.642624 377.425446,106.979698 372.178101,106.979698 
	C372.178101,116.987297 372.178101,126.723602 372.178101,137.020416 
	C369.312775,137.020416 366.877563,137.020416 363.951691,137.020416 
M389.236053,68.135674 
	C383.730103,66.915169 378.224152,65.694664 372.230774,64.366119 
	C372.230774,73.165459 372.230774,80.396873 372.230774,88.000549 
	C375.076996,88.000549 377.700470,88.049553 380.321411,87.989632 
	C384.810638,87.887009 389.162598,87.097885 391.358337,82.626015 
	C393.738556,77.778389 393.410645,72.967484 389.236053,68.135674 
z"/>
<path fill="#333333" opacity="1.000000" stroke="none" 
	d="
M233.450531,122.244362 
	C226.653259,135.575119 214.890091,139.172638 201.637802,139.419296 
	C190.055786,139.634857 179.401688,136.250687 169.478790,129.189636 
	C172.761322,122.999016 176.001022,116.889183 178.724182,111.753510 
	C185.328629,114.344856 191.482162,116.967438 197.798264,119.111015 
	C199.700668,119.756676 202.117737,119.367775 204.188324,118.929634 
	C207.832245,118.158546 210.536041,116.116493 211.147369,112.108971 
	C211.754929,108.126099 210.139008,105.201508 206.547089,103.632072 
	C202.145050,101.708664 197.639404,100.006134 193.119308,98.372009 
	C178.076385,92.933632 172.013306,84.751442 173.217102,71.350632 
	C174.550430,56.507698 183.376297,46.996643 198.154999,44.476677 
	C208.369766,42.734921 223.479034,45.913460 232.294724,51.765480 
	C229.386826,57.482811 226.463730,63.229992 223.350677,69.350662 
	C221.066895,68.104988 218.993607,66.852348 216.818558,65.812599 
	C211.977798,63.498569 206.916626,62.665371 201.953644,65.136436 
	C196.609604,67.797241 196.419342,73.864258 201.479385,77.027740 
	C203.287033,78.157852 205.358658,78.901199 207.370743,79.659317 
	C209.543442,80.477959 211.802551,81.063911 213.998032,81.826027 
	C234.120621,88.811165 240.383179,101.593201 233.450531,122.244362 
z"/>
<path fill="#F1F1F1" opacity="1.000000" stroke="none" 
	d="
M471.980591,70.991745 
	C468.156006,70.993263 464.791473,70.728340 461.508972,71.131439 
	C460.249054,71.286171 459.176239,72.964417 458.018158,73.948456 
	C459.141846,74.966499 460.222595,76.802628 461.396545,76.864296 
	C467.211304,77.169716 473.055389,77.152092 478.879791,76.961899 
	C483.434052,76.813187 485.191284,78.791801 485.036804,83.244919 
	C484.846313,88.735817 484.846680,94.243370 485.036835,99.734283 
	C485.190491,104.171120 483.470642,106.191391 478.900574,106.037270 
	C473.242950,105.846466 467.572235,106.074265 461.910614,105.956757 
	C459.296692,105.902504 457.923859,106.516541 457.920746,109.526489 
	C457.917572,112.594109 459.405945,113.084618 461.963593,113.040337 
	C467.959076,112.936523 473.960510,113.122902 479.953827,112.969254 
	C484.133698,112.862091 486.140991,114.479179 486.027222,118.818024 
	C485.878845,124.478256 485.962067,130.145462 485.999054,135.809311 
	C486.022034,139.327744 484.353851,141.003510 480.827667,140.998779 
	C464.335175,140.976639 447.842560,140.964630 431.350159,141.007935 
	C427.540863,141.017944 425.982300,139.213943 425.987457,135.487320 
	C426.027985,106.167336 426.034027,76.847221 425.982391,47.527279 
	C425.975128,43.419590 427.919098,41.956062 431.835419,41.975410 
	C447.994385,42.055237 464.154175,42.054203 480.313141,41.977402 
	C484.323975,41.958336 486.101196,43.656372 486.019714,47.676380 
	C485.904907,53.338142 485.815613,59.011101 486.044922,64.665909 
	C486.240723,69.495041 484.122925,71.364571 479.467926,71.021393 
	C477.148285,70.850388 474.805603,70.991714 471.980591,70.991745 
M430.507660,125.490692 
	C430.507660,129.236603 430.507660,132.982498 430.507660,136.609375 
	C448.093231,136.609375 464.973724,136.609375 481.701477,136.609375 
	C481.701477,129.959229 481.701477,123.689339 481.701477,116.949463 
	C472.383270,116.949463 463.320190,116.949463 454.297546,116.949463 
	C454.297546,111.567352 454.297546,106.670410 454.297546,101.315910 
	C463.014282,101.315910 471.430695,101.315910 480.041565,101.315910 
	C480.041565,94.612373 480.041565,88.377403 480.041565,81.517761 
	C471.260742,81.517761 462.719788,81.517761 454.332214,81.517761 
	C454.332214,76.145226 454.332214,71.404648 454.332214,66.316849 
	C463.607361,66.316849 472.544525,66.316849 481.632263,66.316849 
	C481.632263,59.566601 481.632263,53.183849 481.632263,46.881817 
	C464.535004,46.881817 447.773285,46.881817 430.507416,46.881817 
	C430.507416,72.948479 430.507416,98.721436 430.507660,125.490692 
z"/>
<path fill="#FEB201" opacity="1.000000" stroke="none" 
	d="
M555.736328,263.492249 
	C555.321472,263.336609 555.009949,262.910675 554.824768,262.236328 
	C555.247253,262.399292 555.543457,262.810638 555.736328,263.492249 
z"/>
<path fill="#FBB002" opacity="1.000000" stroke="none" 
	d="
M416.354980,391.220215 
	C420.006714,383.809174 423.464691,376.717743 427.140564,369.179565 
	C395.646271,369.179565 364.738678,369.179565 333.445099,369.179565 
	C333.445099,374.302490 333.445099,379.347015 333.445099,384.096802 
	C340.402740,385.381531 347.168335,386.632202 353.934479,387.879791 
	C362.974579,389.546631 371.823975,391.925018 379.284821,397.506134 
	C382.743958,400.093811 384.955536,403.743256 384.844391,408.603912 
	C384.631836,417.895386 382.469757,422.745270 375.489258,426.917969 
	C362.676117,414.539795 351.325867,399.859009 333.033569,392.823212 
	C333.033569,404.739594 333.030334,416.314117 333.034393,427.888641 
	C333.039154,441.385071 333.064056,454.881500 333.051849,468.377930 
	C333.046936,473.769653 330.539764,476.478973 325.087189,476.755035 
	C321.430328,476.940216 317.731049,476.537018 314.098602,476.889984 
	C309.780365,477.309570 308.080780,474.579529 308.077484,471.380432 
	C308.069702,463.807495 308.822784,456.235840 309.176086,448.659393 
	C309.331146,445.334106 309.286804,441.998352 309.289124,438.667297 
	C309.299347,424.019562 309.293518,409.371826 309.293518,393.217102 
	C305.564514,399.211853 302.579865,404.024780 299.580658,408.828613 
	C291.954773,421.043152 282.676178,431.916351 272.006348,441.512146 
	C263.817535,448.876648 255.173294,455.740112 246.610641,462.677124 
	C245.478882,463.594055 243.630997,463.627045 242.114777,464.069427 
	C242.217392,462.081848 241.563202,459.523071 242.556168,458.207489 
	C246.451187,453.046967 250.899536,448.307098 255.080475,443.358673 
	C265.706665,430.781738 274.966156,417.355164 282.092896,402.406860 
	C287.075043,391.956848 293.015594,381.964050 298.503296,371.753723 
	C298.796021,371.209137 298.858032,370.540588 299.210022,369.271423 
	C283.811310,369.271423 268.794037,369.271423 253.740036,369.271423 
	C253.156250,366.648163 252.298141,363.661865 251.858490,360.615112 
	C251.181244,355.921844 254.072571,353.886536 258.463318,355.579681 
	C260.381622,356.319397 262.486725,356.959686 264.511810,356.974091 
	C276.609222,357.060333 288.708466,356.874847 300.806091,356.948334 
	C305.019836,356.973938 306.518402,355.475861 306.408691,351.052948 
	C306.099274,338.578644 306.273346,326.091644 306.310638,313.609802 
	C306.326385,308.335663 308.058960,307.627838 313.129944,308.784698 
	C319.019501,310.128235 325.192261,310.180542 331.156158,311.265656 
	C335.099182,311.983063 339.009674,313.248596 342.711823,314.800537 
	C345.535187,315.984100 345.547668,318.289734 343.258820,320.317902 
	C341.773865,321.633728 340.299469,323.333435 338.520386,323.874146 
	C333.613251,325.365417 332.676941,328.467010 332.945221,333.197205 
	C333.377747,340.823822 333.061432,348.492920 333.061432,356.897522 
	C342.101410,356.897522 350.875092,356.978912 359.642365,356.779877 
	C360.587891,356.758453 361.666901,355.229004 362.393250,354.194885 
	C366.017212,349.035339 369.537933,343.803375 373.107788,338.605652 
	C374.635223,336.381775 376.522064,335.242767 378.902863,337.340424 
	C384.622467,342.379822 390.459198,347.311157 395.861725,352.675812 
	C398.908997,355.701752 401.929382,357.284332 406.344208,357.159058 
	C416.611450,356.867676 426.892609,357.066193 438.166992,357.066193 
	C438.166992,341.363770 438.166992,325.996582 438.166992,309.538910 
	C445.395813,309.906738 452.428375,310.088379 459.425720,310.683716 
	C463.960846,311.069550 468.448944,312.034088 472.947174,312.803131 
	C473.732117,312.937317 474.565338,313.250702 475.198090,313.721008 
	C476.702911,314.839417 478.101074,316.101349 479.542297,317.305298 
	C478.238556,318.823517 477.155212,321.362762 475.596375,321.699310 
	C462.483490,324.530273 464.257538,335.299713 463.177734,344.468231 
	C462.790558,347.755707 463.245178,351.133636 463.066681,354.456909 
	C462.895996,357.634827 464.395386,358.524170 467.281677,358.368958 
	C476.413605,357.877960 485.554260,357.541962 494.682220,356.991669 
	C495.863739,356.920441 497.367493,356.238892 498.078064,355.334259 
	C501.337921,351.184174 504.329803,346.825043 507.498413,342.601349 
	C509.086151,340.484955 510.708069,338.360809 512.565247,336.488983 
	C514.619751,334.418243 516.586853,334.571136 519.071838,336.559082 
	C528.910095,344.429626 538.980164,352.010132 548.947266,359.720215 
	C550.125305,360.631500 551.441040,361.510132 552.267456,362.699524 
	C553.831848,364.951080 554.053162,367.217651 550.631226,367.892609 
	C547.891113,368.433044 545.074951,368.853394 542.290833,368.863495 
	C521.301086,368.939789 500.310425,368.831726 479.321442,368.981537 
	C476.506927,369.001587 473.700409,370.143066 470.890198,370.765259 
	C472.183929,373.353851 473.093445,376.239716 474.830627,378.485321 
	C493.077179,402.072144 517.285828,417.180298 544.955566,427.227173 
	C549.126465,428.741608 553.614502,429.423981 557.701538,431.108368 
	C559.489563,431.845245 560.637329,434.135773 562.075806,435.720764 
	C560.554504,436.693970 559.155579,438.089020 557.491943,438.571381 
	C547.264954,441.536957 541.548645,448.656494 538.506836,458.441437 
	C538.138000,459.627899 537.313477,460.672699 536.644348,461.884125 
	C504.404419,441.043579 481.863037,412.388550 465.297821,378.573822 
	C464.822998,378.606873 464.348175,378.639954 463.873352,378.673004 
	C463.617432,380.747253 463.107605,382.825989 463.144043,384.895081 
	C463.630646,412.535156 464.218964,440.173431 464.719818,467.813293 
	C464.843231,474.624329 462.481384,476.803406 455.456940,476.799927 
	C451.458130,476.797974 447.416351,477.174988 443.482208,476.679901 
	C441.969482,476.489532 439.546875,474.388977 439.505249,473.095490 
	C439.172974,462.774719 439.026764,452.429199 439.372223,442.109619 
	C439.957214,424.634827 440.944183,407.173462 441.762177,389.706482 
	C441.321198,389.638397 440.880188,389.570312 440.439209,389.502228 
	C437.480804,393.720947 434.813263,398.184296 431.509705,402.112732 
	C421.380890,414.157532 412.006012,427.092133 400.457428,437.617310 
	C388.203888,448.784973 373.830780,457.636871 360.299957,467.384460 
	C357.711945,469.248871 357.533325,469.000946 354.014923,465.319977 
	C377.487549,443.112152 399.936218,419.884949 416.354980,391.220215 
M463.701752,376.594940 
	C463.701752,376.594940 463.501190,376.484680 463.501190,376.484680 
	C463.501190,376.484680 463.544128,376.762878 463.701752,376.594940 
z"/>
<path fill="#FBB002" opacity="1.000000" stroke="none" 
	d="
M414.768066,491.770447 
	C426.236298,491.620087 437.232391,491.590942 448.221466,491.297821 
	C456.704590,491.071594 465.182220,490.567932 473.653320,490.042877 
	C474.846436,489.968903 476.336365,489.374664 477.096283,488.503967 
	C481.220886,483.778107 485.159454,478.889862 489.771545,473.321747 
	C495.492462,477.472748 501.302795,481.684540 507.108459,485.902771 
	C510.430328,488.316345 513.985779,490.476440 516.998169,493.229797 
	C520.387512,496.327698 520.358093,499.876038 517.063660,503.093872 
	C514.839111,505.266693 512.241516,507.219574 509.486176,508.642120 
	C506.643738,510.109619 505.865295,512.047241 505.957855,515.033081 
	C506.586945,535.328064 507.218597,555.624390 507.609467,575.924927 
	C507.846558,588.239685 507.493042,600.565613 507.709656,612.881165 
	C507.860901,621.481689 508.429047,630.079895 509.015625,638.665222 
	C509.240570,641.958191 507.897980,643.907715 504.859406,644.377136 
	C498.692169,645.329895 492.498749,646.343201 486.281311,646.670837 
	C480.926147,646.953003 479.276001,644.862671 479.254456,639.434204 
	C479.233978,634.268433 479.055756,629.093018 479.309570,623.939758 
	C479.496033,620.154907 478.456696,618.636353 474.324982,618.655823 
	C420.334930,618.909790 366.344177,619.024292 312.353485,619.099731 
	C308.372986,619.105286 306.531372,620.554382 306.599457,624.673828 
	C306.670593,628.979553 306.317352,633.291260 306.190796,637.601624 
	C306.011780,643.697815 302.959015,646.622498 297.018677,646.826599 
	C293.240448,646.956299 289.454987,647.428894 285.715820,648.020020 
	C278.956299,649.088440 275.101654,646.127869 275.308411,639.389282 
	C276.155792,611.771973 277.507599,584.164001 277.914185,556.541443 
	C278.205536,536.744812 277.262543,516.930908 276.929871,497.123657 
	C276.825165,490.888641 276.913513,484.650391 276.913513,477.966248 
	C282.262970,480.133942 287.474548,481.045563 291.081482,483.949951 
	C299.331329,490.592987 308.911438,490.672607 318.441284,490.997406 
	C334.421692,491.542053 350.419586,491.646454 366.411377,491.762726 
	C382.371094,491.878754 398.332306,491.781677 414.768066,491.770447 
M479.251251,577.501221 
	C479.251251,571.708313 479.251251,565.915344 479.251251,560.153870 
	C477.067169,559.643311 475.460297,558.971069 473.839203,558.934875 
	C458.859283,558.599976 443.877106,558.186707 428.895264,558.175110 
	C415.968811,558.165039 403.042542,558.832031 390.115143,558.875000 
	C363.826996,558.962463 337.537964,558.864929 311.249725,558.746826 
	C307.873169,558.731628 306.528534,559.798523 306.591095,563.367371 
	C306.778137,574.029663 306.648743,584.697510 306.644135,595.363159 
	C306.642334,599.470276 306.643829,603.577393 306.643829,607.799988 
	C364.408539,607.799988 421.628906,607.799988 479.251648,607.799988 
	C479.251648,597.780823 479.251648,588.140747 479.251251,577.501221 
M380.500000,502.003479 
	C355.989319,502.292786 331.478668,502.582062 306.737823,502.874054 
	C306.737823,518.280945 306.737823,532.795593 306.737823,547.437012 
	C364.331604,547.437012 421.550049,547.437012 479.255402,547.437012 
	C479.255402,534.157043 479.262787,521.195496 479.251617,508.233948 
	C479.247406,503.340088 477.741913,501.925934 472.745392,501.950012 
	C463.654694,501.993866 454.563843,502.035187 445.473053,502.036652 
	C424.148712,502.040009 402.824341,502.019226 380.500000,502.003479 
z"/>
<path fill="#F8F8F8" opacity="1.000000" stroke="none" 
	d="
M522.004150,76.978882 
	C522.004150,72.703560 522.004150,68.919685 522.004150,64.896652 
	C528.563110,64.701004 534.884583,63.959831 539.078369,69.843147 
	C541.580505,73.353241 541.699158,77.505127 539.444519,81.146973 
	C535.481934,87.547546 528.918640,86.986870 522.004150,86.913536 
	C522.004150,83.665245 522.004150,80.567795 522.004150,76.978882 
z"/>
<path fill="#F7F7F7" opacity="1.000000" stroke="none" 
	d="
M389.527588,68.391449 
	C393.410645,72.967484 393.738556,77.778389 391.358337,82.626015 
	C389.162598,87.097885 384.810638,87.887009 380.321411,87.989632 
	C377.700470,88.049553 375.076996,88.000549 372.230774,88.000549 
	C372.230774,80.396873 372.230774,73.165459 372.230774,64.366119 
	C378.224152,65.694664 383.730103,66.915169 389.527588,68.391449 
z"/>
<path fill="#333333" opacity="1.000000" stroke="none" 
	d="
M430.507538,124.992538 
	C430.507416,98.721436 430.507416,72.948479 430.507416,46.881817 
	C447.773285,46.881817 464.535004,46.881817 481.632263,46.881817 
	C481.632263,53.183849 481.632263,59.566601 481.632263,66.316849 
	C472.544525,66.316849 463.607361,66.316849 454.332214,66.316849 
	C454.332214,71.404648 454.332214,76.145226 454.332214,81.517761 
	C462.719788,81.517761 471.260742,81.517761 480.041565,81.517761 
	C480.041565,88.377403 480.041565,94.612373 480.041565,101.315910 
	C471.430695,101.315910 463.014282,101.315910 454.297546,101.315910 
	C454.297546,106.670410 454.297546,111.567352 454.297546,116.949463 
	C463.320190,116.949463 472.383270,116.949463 481.701477,116.949463 
	C481.701477,123.689339 481.701477,129.959229 481.701477,136.609375 
	C464.973724,136.609375 448.093231,136.609375 430.507660,136.609375 
	C430.507660,132.982498 430.507660,129.236603 430.507538,124.992538 
z"/>
<path fill="#595958" opacity="1.000000" stroke="none" 
	d="
M463.622925,376.678894 
	C463.544128,376.762878 463.501190,376.484680 463.501190,376.484680 
	C463.501190,376.484680 463.701752,376.594940 463.622925,376.678894 
z"/>
<path fill="#595957" opacity="1.000000" stroke="none" 
	d="
M479.251465,578.000916 
	C479.251648,588.140747 479.251648,597.780823 479.251648,607.799988 
	C421.628906,607.799988 364.408539,607.799988 306.643829,607.799988 
	C306.643829,603.577393 306.642334,599.470276 306.644135,595.363159 
	C306.648743,584.697510 306.778137,574.029663 306.591095,563.367371 
	C306.528534,559.798523 307.873169,558.731628 311.249725,558.746826 
	C337.537964,558.864929 363.826996,558.962463 390.115143,558.875000 
	C403.042542,558.832031 415.968811,558.165039 428.895264,558.175110 
	C443.877106,558.186707 458.859283,558.599976 473.839203,558.934875 
	C475.460297,558.971069 477.067169,559.643311 479.251251,560.153870 
	C479.251251,565.915344 479.251251,571.708313 479.251465,578.000916 
z"/>
<path fill="#5B5A57" opacity="1.000000" stroke="none" 
	d="
M381.000000,502.005829 
	C402.824341,502.019226 424.148712,502.040009 445.473053,502.036652 
	C454.563843,502.035187 463.654694,501.993866 472.745392,501.950012 
	C477.741913,501.925934 479.247406,503.340088 479.251617,508.233948 
	C479.262787,521.195496 479.255402,534.157043 479.255402,547.437012 
	C421.550049,547.437012 364.331604,547.437012 306.737823,547.437012 
	C306.737823,532.795593 306.737823,518.280945 306.737823,502.874054 
	C331.478668,502.582062 355.989319,502.292786 381.000000,502.005829 
z"/>
</svg>